<mxfile host="Electron" modified="2023-07-17T20:02:59.442Z" agent="Mozilla/5.0 (Windows NT 10.0; Win64; x64) AppleWebKit/537.36 (KHTML, like Gecko) draw.io/21.5.1 Chrome/112.0.5615.204 Electron/24.6.0 Safari/537.36" etag="-7FeLiLKPMVUmN7HeVca" version="21.5.1" type="device">
  <diagram name="Page-1" id="LFvdZQ2ht71AN2lxMNn8">
    <mxGraphModel dx="990" dy="1056" grid="1" gridSize="10" guides="1" tooltips="1" connect="1" arrows="1" fold="1" page="1" pageScale="1" pageWidth="827" pageHeight="1169" math="0" shadow="0">
      <root>
        <mxCell id="0" />
        <mxCell id="1" parent="0" />
        <mxCell id="8kKvMiI7hiI49bQdAj8j-8" value="" style="ellipse;whiteSpace=wrap;html=1;aspect=fixed;" vertex="1" parent="1">
          <mxGeometry x="307.5" y="166.5" width="215" height="215" as="geometry" />
        </mxCell>
        <mxCell id="8kKvMiI7hiI49bQdAj8j-9" style="edgeStyle=orthogonalEdgeStyle;rounded=0;orthogonalLoop=1;jettySize=auto;html=1;entryX=0.5;entryY=1;entryDx=0;entryDy=0;endArrow=none;endFill=0;" edge="1" parent="1" source="8kKvMiI7hiI49bQdAj8j-6" target="8kKvMiI7hiI49bQdAj8j-8">
          <mxGeometry relative="1" as="geometry" />
        </mxCell>
        <mxCell id="8kKvMiI7hiI49bQdAj8j-6" value="" style="ellipse;whiteSpace=wrap;html=1;aspect=fixed;" vertex="1" parent="1">
          <mxGeometry x="369.5" y="460" width="91" height="91" as="geometry" />
        </mxCell>
        <mxCell id="8kKvMiI7hiI49bQdAj8j-1" value="UI" style="ellipse;whiteSpace=wrap;html=1;aspect=fixed;fillColor=#dae8fc;strokeColor=#6c8ebf;" vertex="1" parent="1">
          <mxGeometry x="369" y="180" width="90" height="90" as="geometry" />
        </mxCell>
        <mxCell id="8kKvMiI7hiI49bQdAj8j-3" value="Data Access Layer" style="ellipse;whiteSpace=wrap;html=1;aspect=fixed;fillColor=#d5e8d4;strokeColor=#82b366;" vertex="1" parent="1">
          <mxGeometry x="414" y="259" width="90" height="90" as="geometry" />
        </mxCell>
        <mxCell id="8kKvMiI7hiI49bQdAj8j-4" value="Business Logic" style="ellipse;whiteSpace=wrap;html=1;aspect=fixed;fillColor=#fff2cc;strokeColor=#d6b656;" vertex="1" parent="1">
          <mxGeometry x="324" y="259" width="90" height="90" as="geometry" />
        </mxCell>
        <mxCell id="8kKvMiI7hiI49bQdAj8j-5" value="" style="sketch=0;outlineConnect=0;fontColor=#232F3E;gradientColor=none;fillColor=#232F3D;strokeColor=none;dashed=0;verticalLabelPosition=bottom;verticalAlign=top;align=center;html=1;fontSize=12;fontStyle=0;aspect=fixed;pointerEvents=1;shape=mxgraph.aws4.servers;" vertex="1" parent="1">
          <mxGeometry x="389.5" y="480" width="51" height="51" as="geometry" />
        </mxCell>
        <mxCell id="8kKvMiI7hiI49bQdAj8j-7" value="Monolithic Architecture" style="text;html=1;align=center;verticalAlign=middle;resizable=0;points=[];autosize=1;strokeColor=none;fillColor=none;fontStyle=1;fontSize=18;" vertex="1" parent="1">
          <mxGeometry x="305" y="580" width="220" height="40" as="geometry" />
        </mxCell>
        <mxCell id="8kKvMiI7hiI49bQdAj8j-11" style="edgeStyle=orthogonalEdgeStyle;rounded=0;orthogonalLoop=1;jettySize=auto;html=1;entryX=0.5;entryY=1;entryDx=0;entryDy=0;endArrow=none;endFill=0;" edge="1" parent="1" source="8kKvMiI7hiI49bQdAj8j-12" target="8kKvMiI7hiI49bQdAj8j-14">
          <mxGeometry relative="1" as="geometry">
            <mxPoint x="765.5" y="426.5" as="targetPoint" />
          </mxGeometry>
        </mxCell>
        <mxCell id="8kKvMiI7hiI49bQdAj8j-12" value="" style="ellipse;whiteSpace=wrap;html=1;aspect=fixed;" vertex="1" parent="1">
          <mxGeometry x="720" y="460" width="91" height="91" as="geometry" />
        </mxCell>
        <mxCell id="8kKvMiI7hiI49bQdAj8j-21" style="rounded=0;orthogonalLoop=1;jettySize=auto;html=1;endArrow=none;endFill=0;" edge="1" parent="1" source="8kKvMiI7hiI49bQdAj8j-13" target="8kKvMiI7hiI49bQdAj8j-15">
          <mxGeometry relative="1" as="geometry" />
        </mxCell>
        <mxCell id="8kKvMiI7hiI49bQdAj8j-24" style="rounded=0;orthogonalLoop=1;jettySize=auto;html=1;endArrow=none;endFill=0;" edge="1" parent="1" source="8kKvMiI7hiI49bQdAj8j-13" target="8kKvMiI7hiI49bQdAj8j-14">
          <mxGeometry relative="1" as="geometry" />
        </mxCell>
        <mxCell id="8kKvMiI7hiI49bQdAj8j-25" style="rounded=0;orthogonalLoop=1;jettySize=auto;html=1;endArrow=none;endFill=0;" edge="1" parent="1" source="8kKvMiI7hiI49bQdAj8j-13" target="8kKvMiI7hiI49bQdAj8j-18">
          <mxGeometry relative="1" as="geometry" />
        </mxCell>
        <mxCell id="8kKvMiI7hiI49bQdAj8j-26" style="rounded=0;orthogonalLoop=1;jettySize=auto;html=1;endArrow=none;endFill=0;" edge="1" parent="1" source="8kKvMiI7hiI49bQdAj8j-13" target="8kKvMiI7hiI49bQdAj8j-19">
          <mxGeometry relative="1" as="geometry" />
        </mxCell>
        <mxCell id="8kKvMiI7hiI49bQdAj8j-35" style="rounded=0;orthogonalLoop=1;jettySize=auto;html=1;endArrow=none;endFill=0;" edge="1" parent="1" source="8kKvMiI7hiI49bQdAj8j-13" target="8kKvMiI7hiI49bQdAj8j-20">
          <mxGeometry relative="1" as="geometry" />
        </mxCell>
        <mxCell id="8kKvMiI7hiI49bQdAj8j-13" value="UI" style="ellipse;whiteSpace=wrap;html=1;aspect=fixed;fillColor=#dae8fc;strokeColor=#6c8ebf;" vertex="1" parent="1">
          <mxGeometry x="860.5" y="166.5" width="90" height="90" as="geometry" />
        </mxCell>
        <mxCell id="8kKvMiI7hiI49bQdAj8j-14" value="Microservice 2" style="ellipse;whiteSpace=wrap;html=1;aspect=fixed;fillColor=#bac8d3;strokeColor=#23445d;" vertex="1" parent="1">
          <mxGeometry x="720.5" y="310" width="90" height="90" as="geometry" />
        </mxCell>
        <mxCell id="8kKvMiI7hiI49bQdAj8j-22" style="rounded=0;orthogonalLoop=1;jettySize=auto;html=1;endArrow=none;endFill=0;" edge="1" parent="1" source="8kKvMiI7hiI49bQdAj8j-15" target="8kKvMiI7hiI49bQdAj8j-14">
          <mxGeometry relative="1" as="geometry" />
        </mxCell>
        <mxCell id="8kKvMiI7hiI49bQdAj8j-15" value="Microservice 1" style="ellipse;whiteSpace=wrap;html=1;aspect=fixed;fillColor=#fff2cc;strokeColor=#d6b656;" vertex="1" parent="1">
          <mxGeometry x="630.5" y="200" width="90" height="90" as="geometry" />
        </mxCell>
        <mxCell id="8kKvMiI7hiI49bQdAj8j-16" value="" style="sketch=0;outlineConnect=0;fontColor=#232F3E;gradientColor=none;fillColor=#232F3D;strokeColor=none;dashed=0;verticalLabelPosition=bottom;verticalAlign=top;align=center;html=1;fontSize=12;fontStyle=0;aspect=fixed;pointerEvents=1;shape=mxgraph.aws4.servers;" vertex="1" parent="1">
          <mxGeometry x="740.5" y="480" width="51" height="51" as="geometry" />
        </mxCell>
        <mxCell id="8kKvMiI7hiI49bQdAj8j-17" value="Microservice Architecture" style="text;html=1;align=center;verticalAlign=middle;resizable=0;points=[];autosize=1;strokeColor=none;fillColor=none;fontStyle=1;fontSize=18;" vertex="1" parent="1">
          <mxGeometry x="785.5" y="580" width="240" height="40" as="geometry" />
        </mxCell>
        <mxCell id="8kKvMiI7hiI49bQdAj8j-18" value="Microservice 2" style="ellipse;whiteSpace=wrap;html=1;aspect=fixed;fillColor=#f8cecc;strokeColor=#b85450;" vertex="1" parent="1">
          <mxGeometry x="860.5" y="310" width="90" height="90" as="geometry" />
        </mxCell>
        <mxCell id="8kKvMiI7hiI49bQdAj8j-19" value="Microservice 2" style="ellipse;whiteSpace=wrap;html=1;aspect=fixed;fillColor=#e1d5e7;strokeColor=#9673a6;" vertex="1" parent="1">
          <mxGeometry x="1000.5" y="310" width="90" height="90" as="geometry" />
        </mxCell>
        <mxCell id="8kKvMiI7hiI49bQdAj8j-28" style="rounded=0;orthogonalLoop=1;jettySize=auto;html=1;entryX=1;entryY=0;entryDx=0;entryDy=0;endArrow=none;endFill=0;" edge="1" parent="1" source="8kKvMiI7hiI49bQdAj8j-20" target="8kKvMiI7hiI49bQdAj8j-18">
          <mxGeometry relative="1" as="geometry" />
        </mxCell>
        <mxCell id="8kKvMiI7hiI49bQdAj8j-20" value="Microservice 2" style="ellipse;whiteSpace=wrap;html=1;aspect=fixed;fillColor=#ffe6cc;strokeColor=#d79b00;" vertex="1" parent="1">
          <mxGeometry x="1090.5" y="200" width="90" height="90" as="geometry" />
        </mxCell>
        <mxCell id="8kKvMiI7hiI49bQdAj8j-33" style="edgeStyle=orthogonalEdgeStyle;rounded=0;orthogonalLoop=1;jettySize=auto;html=1;entryX=0.5;entryY=1;entryDx=0;entryDy=0;endArrow=none;endFill=0;" edge="1" parent="1" source="8kKvMiI7hiI49bQdAj8j-29" target="8kKvMiI7hiI49bQdAj8j-18">
          <mxGeometry relative="1" as="geometry" />
        </mxCell>
        <mxCell id="8kKvMiI7hiI49bQdAj8j-29" value="" style="ellipse;whiteSpace=wrap;html=1;aspect=fixed;" vertex="1" parent="1">
          <mxGeometry x="860" y="460" width="91" height="91" as="geometry" />
        </mxCell>
        <mxCell id="8kKvMiI7hiI49bQdAj8j-30" value="" style="sketch=0;outlineConnect=0;fontColor=#232F3E;gradientColor=none;fillColor=#232F3D;strokeColor=none;dashed=0;verticalLabelPosition=bottom;verticalAlign=top;align=center;html=1;fontSize=12;fontStyle=0;aspect=fixed;pointerEvents=1;shape=mxgraph.aws4.servers;" vertex="1" parent="1">
          <mxGeometry x="880.5" y="480" width="51" height="51" as="geometry" />
        </mxCell>
        <mxCell id="8kKvMiI7hiI49bQdAj8j-34" style="edgeStyle=orthogonalEdgeStyle;rounded=0;orthogonalLoop=1;jettySize=auto;html=1;entryX=0.5;entryY=1;entryDx=0;entryDy=0;endArrow=none;endFill=0;" edge="1" parent="1" source="8kKvMiI7hiI49bQdAj8j-31" target="8kKvMiI7hiI49bQdAj8j-19">
          <mxGeometry relative="1" as="geometry" />
        </mxCell>
        <mxCell id="8kKvMiI7hiI49bQdAj8j-31" value="" style="ellipse;whiteSpace=wrap;html=1;aspect=fixed;" vertex="1" parent="1">
          <mxGeometry x="1000" y="460" width="91" height="91" as="geometry" />
        </mxCell>
        <mxCell id="8kKvMiI7hiI49bQdAj8j-32" value="" style="sketch=0;outlineConnect=0;fontColor=#232F3E;gradientColor=none;fillColor=#232F3D;strokeColor=none;dashed=0;verticalLabelPosition=bottom;verticalAlign=top;align=center;html=1;fontSize=12;fontStyle=0;aspect=fixed;pointerEvents=1;shape=mxgraph.aws4.servers;" vertex="1" parent="1">
          <mxGeometry x="1019.5" y="480" width="51" height="51" as="geometry" />
        </mxCell>
        <mxCell id="8kKvMiI7hiI49bQdAj8j-36" value="" style="endArrow=none;html=1;rounded=0;" edge="1" parent="1">
          <mxGeometry width="50" height="50" relative="1" as="geometry">
            <mxPoint x="600" y="620" as="sourcePoint" />
            <mxPoint x="600" y="100" as="targetPoint" />
          </mxGeometry>
        </mxCell>
      </root>
    </mxGraphModel>
  </diagram>
</mxfile>
